<?xml version="1.0" encoding="utf-8"?>
<!-- Generator: Adobe Illustrator 28.1.0, SVG Export Plug-In . SVG Version: 6.00 Build 0)  -->
<svg version="1.1" id="Layer_1" xmlns="http://www.w3.org/2000/svg" xmlns:xlink="http://www.w3.org/1999/xlink" x="0px" y="0px"
	 viewBox="0 0 512 512" style="enable-background:new 0 0 512 512;" xml:space="preserve">
<style type="text/css">
	.st0{fill:#FFFFFF;}
</style>
<g transform="translate(0,0)">
	<path class="st0" d="M256,23C127.5,23,23,127.5,23,256S127.5,488.9,256,488.9S488.9,384.5,488.9,256S384.5,23,256,23z M256,40.9
		c118.9,0,215.1,96.2,215.1,215.1S374.9,471.1,256,471.1S40.9,374.9,40.9,256C41,137.1,137.1,41,256,40.9z"/>
</g>
<path class="st0" d="M256,78c98.4,0,178,79.6,178,178s-79.6,178-178,178S78,354.4,78,256S157.6,78,256,78z"/>
</svg>
