<?xml version="1.0" encoding="UTF-8" standalone="no"?>
<!DOCTYPE svg PUBLIC "-//W3C//DTD SVG 1.1//EN" "http://www.w3.org/Graphics/SVG/1.1/DTD/svg11.dtd">
<!-- Created with Vectornator (http://vectornator.io/) -->
<svg height="500.0pt" stroke-miterlimit="10" style="fill-rule:nonzero;clip-rule:evenodd;stroke-linecap:round;stroke-linejoin:round;" version="1.1" viewBox="0 0 500 500" width="500.0pt" xml:space="preserve" xmlns="http://www.w3.org/2000/svg" xmlns:xlink="http://www.w3.org/1999/xlink">
<defs/>
<clipPath id="ArtboardFrame">
<rect height="500" width="500" x="0" y="0"/>
</clipPath>
<g clip-path="url(#ArtboardFrame)" id="Layer-1">
<path d="M2.84217e-14 390C2.84217e-14 329.249 49.2487 280 110 280L390 280C450.751 280 500 329.249 500 390L500 390C500 450.751 450.751 500 390 500L110 500C49.2487 500 2.84217e-14 450.751 2.84217e-14 390L2.84217e-14 390Z" fill="#a5ed9f" fill-rule="nonzero" opacity="1" stroke="none"/>
<path d="M110 0C49.2487 0 0 49.2487 0 110C0 170.751 49.2487 220 110 220L390 220C450.751 220 500 170.751 500 110C500 49.2487 450.751 0 390 0L110 0ZM109.875 60L390.125 60C417.669 60 440 82.3309 440 109.875L440 110.125C440 137.669 417.669 160 390.125 160L109.875 160C82.3309 160 60 137.669 60 110.125L60 109.875C60 82.3309 82.3309 60 109.875 60Z" fill="#a5ed9f" fill-rule="nonzero" opacity="1" stroke="none"/>
</g>
</svg>
